# xmcd
#
# Track frame offsets:
#	150
#	15772
#	30957
#	43850
#	57632
#	69870
#	86087
#	103392
#	116205
#	130787
#	146292
#	160655
#	178427
#	190907
#	208292
#	223257
#	240680
#	256590
#
# Disc length: 3604
#
# Revision: 2
# Processed by: cddbd v1.5.1PL0 Copyright (c) Steve Scherf et al.
# Submitted via: audiograbber 1.83.01
# Normalized: r1:DSETVAR1
#
DISCID=060e1212
DTITLE=Various Artist - Born To Boogie '92
DYEAR=1900
DGENRE=Country
TTITLE0=Alabama - Down Home
TTITLE1=Kathy Mattea - Eighteen Wheels And A Dozen Roses
TTITLE2=Mark Collie - She's Never Comin' Back
TTITLE3=Patty Loveless - Hurt Me Bad (In A Real Good Way)
TTITLE4=George Strait - If I Knew Me
TTITLE5=Exile - Nobody's Talking
TTITLE6=Clinton Gregory - Play Ruby Play
TTITLE7=Mark Chesnutt - Blame It On Texas
TTITLE8=Marty Stuart - Tempted
TTITLE9=Dolly Parton and Ricky Van Shelton - Rockin' Years
TTITLE10=Mike Reid - Walk On Faith
TTITLE11=Suzy Bogguss - Someday Soon
TTITLE12=Joe Diffie - If The Devil Danced (In Emprty Pockets)
TTITLE13=Tanya Tucker - Some Kind Of Trouble
TTITLE14=George Fox - Here Today, Here Tomorrow
TTITLE15=Joan Kennedy - Sometimes She Feels Like A Man
TTITLE16=Kathy Mattea - She Came From Forth Worth
TTITLE17=Sammy Kershaw - Don't Go Near The Water
EXTD=
EXTT0=
EXTT1=
EXTT2=
EXTT3=
EXTT4=
EXTT5=
EXTT6=
EXTT7=
EXTT8=
EXTT9=
EXTT10=
EXTT11=
EXTT12=
EXTT13=
EXTT14=
EXTT15=
EXTT16=
EXTT17=
PLAYORDER=
